<svg width="1200" height="630" viewBox="0 0 1200 630" fill="none" xmlns="http://www.w3.org/2000/svg" role="img" aria-labelledby="title desc">
  <title id="title">Cowork Automation Generator social preview</title>
  <desc id="desc">Meta image for cowork-kit-setup showing a field name becoming a ready automation kit.</desc>
  <defs>
    <linearGradient id="bg" x1="0" y1="0" x2="1200" y2="630" gradientUnits="userSpaceOnUse">
      <stop offset="0" stop-color="#070B16"/>
      <stop offset="0.46" stop-color="#0D1730"/>
      <stop offset="1" stop-color="#121127"/>
    </linearGradient>
    <radialGradient id="orbA" cx="0" cy="0" r="1" gradientUnits="userSpaceOnUse" gradientTransform="translate(260 70) rotate(42) scale(440 250)">
      <stop stop-color="#6EE7F9" stop-opacity="0.44"/>
      <stop offset="1" stop-color="#6EE7F9" stop-opacity="0"/>
    </radialGradient>
    <radialGradient id="orbB" cx="0" cy="0" r="1" gradientUnits="userSpaceOnUse" gradientTransform="translate(1000 500) rotate(132) scale(380 270)">
      <stop stop-color="#A78BFA" stop-opacity="0.40"/>
      <stop offset="1" stop-color="#A78BFA" stop-opacity="0"/>
    </radialGradient>
    <linearGradient id="card" x1="105" y1="135" x2="1085" y2="540" gradientUnits="userSpaceOnUse">
      <stop stop-color="#111B34" stop-opacity="0.94"/>
      <stop offset="1" stop-color="#18152E" stop-opacity="0.90"/>
    </linearGradient>
    <linearGradient id="accent" x1="120" y1="0" x2="870" y2="500" gradientUnits="userSpaceOnUse">
      <stop stop-color="#67E8F9"/>
      <stop offset="0.55" stop-color="#A78BFA"/>
      <stop offset="1" stop-color="#F0ABFC"/>
    </linearGradient>
    <filter id="softShadow" x="-40" y="-40" width="1280" height="710" filterUnits="userSpaceOnUse" color-interpolation-filters="sRGB">
      <feDropShadow dx="0" dy="24" stdDeviation="34" flood-color="#000000" flood-opacity="0.38"/>
    </filter>
    <filter id="smallShadow" x="0" y="0" width="1200" height="630" filterUnits="userSpaceOnUse" color-interpolation-filters="sRGB">
      <feDropShadow dx="0" dy="10" stdDeviation="14" flood-color="#000000" flood-opacity="0.24"/>
    </filter>
    <clipPath id="panelClip">
      <rect x="76" y="64" width="1048" height="502" rx="38"/>
    </clipPath>
    <style>
      .font { font-family: Inter, ui-sans-serif, system-ui, -apple-system, BlinkMacSystemFont, "Segoe UI", Arial, sans-serif; }
      .mono { font-family: "SF Mono", "Cascadia Mono", "Roboto Mono", Consolas, monospace; }
      .muted { fill: #9EA8C4; }
      .body { fill: #C9D2EA; }
      .white { fill: #F8FAFC; }
      .dim { fill: #727D9E; }
    </style>
  </defs>

  <rect width="1200" height="630" fill="url(#bg)"/>
  <rect width="1200" height="630" fill="url(#orbA)"/>
  <rect width="1200" height="630" fill="url(#orbB)"/>

  <g opacity="0.16">
    <path d="M0 530 C180 492 260 560 426 522 C598 482 671 393 835 412 C978 429 1046 510 1200 465" stroke="#93C5FD" stroke-width="1"/>
    <path d="M0 120 C170 155 283 76 425 112 C585 153 682 234 818 203 C969 169 1045 78 1200 108" stroke="#C084FC" stroke-width="1"/>
    <circle cx="109" cy="510" r="2" fill="#E0F2FE"/>
    <circle cx="231" cy="98" r="2" fill="#E0F2FE"/>
    <circle cx="953" cy="110" r="2" fill="#F5D0FE"/>
    <circle cx="1079" cy="445" r="2" fill="#F5D0FE"/>
  </g>

  <g filter="url(#softShadow)">
    <rect x="76" y="64" width="1048" height="502" rx="38" fill="url(#card)" stroke="rgba(255,255,255,0.14)"/>
    <rect x="77" y="65" width="1046" height="500" rx="37" fill="none" stroke="rgba(255,255,255,0.08)"/>
  </g>

  <g clip-path="url(#panelClip)">
    <path d="M76 64 H1124 V156 C1010 141 948 171 858 175 C721 181 642 113 505 129 C383 144 300 213 172 195 C131 189 99 174 76 159 V64Z" fill="url(#accent)" opacity="0.10"/>
  </g>

  <g class="font">
    <g transform="translate(116 106)">
      <rect x="0" y="0" width="212" height="36" rx="18" fill="rgba(103,232,249,0.10)" stroke="rgba(103,232,249,0.30)"/>
      <circle cx="23" cy="18" r="6" fill="#67E8F9"/>
      <text x="40" y="23" fill="#BFF7FF" font-size="13" font-weight="700" letter-spacing="2.2">COWORK KIT SETUP</text>
    </g>

    <text x="116" y="207" class="white" font-size="68" font-weight="800" letter-spacing="-2.5">Cowork Kit</text>
    <text x="116" y="282" fill="url(#accent)" font-size="68" font-weight="800" letter-spacing="-2.5">Generator</text>
    <text x="120" y="329" class="body" font-size="24" font-weight="500">Turn any field into a ready automation kit.</text>
    <text x="120" y="365" class="muted" font-size="20" font-weight="450">Claude interviews, scaffolds, runs, and fixes the workflow.</text>

    <g transform="translate(116 418)">
      <g filter="url(#smallShadow)">
        <rect x="0" y="0" width="174" height="46" rx="23" fill="rgba(255,255,255,0.08)" stroke="rgba(255,255,255,0.16)"/>
        <text x="22" y="30" class="body" font-size="17" font-weight="650">No coding</text>
      </g>
      <g filter="url(#smallShadow)">
        <rect x="192" y="0" width="214" height="46" rx="23" fill="rgba(255,255,255,0.08)" stroke="rgba(255,255,255,0.16)"/>
        <text x="214" y="30" class="body" font-size="17" font-weight="650">Human approval</text>
      </g>
      <g filter="url(#smallShadow)">
        <rect x="424" y="0" width="183" height="46" rx="23" fill="rgba(255,255,255,0.08)" stroke="rgba(255,255,255,0.16)"/>
        <text x="446" y="30" class="body" font-size="17" font-weight="650">BYOK webapp</text>
      </g>
    </g>

    <g transform="translate(120 508)">
      <text class="mono dim" font-size="18" font-weight="600">github.com/rahmanef63/cowork-kit-setup</text>
    </g>
  </g>

  <g transform="translate(704 118)" class="font">
    <g filter="url(#smallShadow)">
      <rect x="0" y="0" width="344" height="384" rx="30" fill="rgba(10,17,32,0.72)" stroke="rgba(255,255,255,0.15)"/>
      <rect x="22" y="22" width="300" height="64" rx="18" fill="rgba(103,232,249,0.10)" stroke="rgba(103,232,249,0.25)"/>
      <circle cx="54" cy="54" r="10" fill="#67E8F9"/>
      <text x="78" y="50" class="white" font-size="21" font-weight="760">User talks</text>
      <text x="78" y="72" class="muted" font-size="14" font-weight="520">“I run a clinic”</text>

      <path d="M172 96 V126" stroke="#64748B" stroke-width="2" stroke-linecap="round"/>
      <path d="M164 119 L172 127 L180 119" stroke="#64748B" stroke-width="2" stroke-linecap="round" stroke-linejoin="round"/>

      <rect x="22" y="132" width="300" height="82" rx="20" fill="rgba(167,139,250,0.11)" stroke="rgba(167,139,250,0.28)"/>
      <circle cx="54" cy="173" r="10" fill="#A78BFA"/>
      <text x="78" y="165" class="white" font-size="21" font-weight="760">Claude designs</text>
      <text x="78" y="189" class="muted" font-size="14" font-weight="520">Interview, scaffold, fix</text>

      <path d="M172 224 V254" stroke="#64748B" stroke-width="2" stroke-linecap="round"/>
      <path d="M164 247 L172 255 L180 247" stroke="#64748B" stroke-width="2" stroke-linecap="round" stroke-linejoin="round"/>

      <rect x="22" y="260" width="300" height="90" rx="20" fill="rgba(255,255,255,0.08)" stroke="rgba(255,255,255,0.16)"/>
      <text x="46" y="294" class="white mono" font-size="19" font-weight="700">projects/&lt;field&gt;/</text>
      <g transform="translate(46 312)">
        <rect x="0" y="0" width="56" height="22" rx="11" fill="rgba(103,232,249,0.13)"/>
        <text x="14" y="16" fill="#BAF8FF" font-size="11" font-weight="800">skill</text>
        <rect x="68" y="0" width="44" height="22" rx="11" fill="rgba(167,139,250,0.13)"/>
        <text x="83" y="16" fill="#DDD6FE" font-size="11" font-weight="800">CLI</text>
        <rect x="124" y="0" width="70" height="22" rx="11" fill="rgba(240,171,252,0.13)"/>
        <text x="143" y="16" fill="#F5D0FE" font-size="11" font-weight="800">wizard</text>
      </g>
    </g>
  </g>
</svg>
